<svg viewBox="0 0 544.89 249.33" xmlns="http://www.w3.org/2000/svg">
  <g transform="matrix(1.3333 0 0 -1.3333 507.86 234.32)">
    <path d="M-104.14 157.04s1.263-5.328-2.76-6.069c-2.801-.495-7.318 2.28-9.593 5.049-2.801 3.415-2.447 6.101-.268 8.486 3.274 3.621 8.879 2.222 8.879 2.222s-10.269 9.009-20.963 1.626c-9.526-6.556-6.792-15.495 1.804-23.294 7.747-7.049 1.559-14.778-6.245-13.774-5.35.682-7.539 4.975-6.254 7.61 1.107 2.254 4.947 3.64 4.947 3.64s-4.411 1.793-9.603-.162c-4.664-1.758-8.509-5.613-8.202-15.269V82.339s4.821 5.944 10.488 11.989c6.346 6.819 9.242 11.427 15.759 10.888 12.331-.763 21.248 4.715 27.31 13.505 11.638 16.905 2.522 35.793-5.299 38.319" fill="#e72a23"/>
    <path d="M-300.84 31.753c-8.804 0-11.852 7.641-11.852 15.66 0 8.018 2.87 15.955 11.757 15.955 8.693 0 11.841-8.028 11.841-15.955 0-8.019-2.86-15.66-11.746-15.66m2.869 41.837c-6.12 0-11.372-2.286-14.721-7.642h-.189v6.308l-12.9-2.301V5.473l13.563-12.068.001 35.569h.199c3.34-4.873 8.778-7.448 14.805-7.448 14.521 0 21.693 12.314 21.693 25.509 0 14.04-6.982 26.555-22.451 26.555m-48.909-21.011c-7.636 1.808-15.393 2.481-15.393 7.348 0 4.11 4.494 4.596 7.562 4.596 4.867 0 8.879-1.442 9.27-6.701h12.894c-1.057 12.141-11.08 15.767-21.792 15.767-10.608 0-21.489-3.245-21.489-15.867 0-8.776 7.733-11.358 15.668-13.178 9.653-2.004 15.385-3.538 15.385-7.643 0-4.775-5.069-6.305-8.889-6.305-5.253 0-10.419 2.488-10.419 8.318h-12.89c.484-13.098 11.75-17.389 23.206-17.389 11.181 0 22.56 4.198 22.56 17.195 0 9.168-7.747 12.033-15.673 13.859m108.12-10.616c0-3.049-.381-11.368-10.978-11.368-4.402 0-8.328 1.338-8.328 6.306 0 4.965 3.833 6.505 8.037 7.256 4.199.773 8.977.868 11.269 2.877Zm13.576 17.594c0 11.84-11.853 14.032-21.696 14.032-11.083 0-22.456-3.916-23.22-16.531h13.571c.481 5.349 3.725 7.464 8.986 7.464 4.77 0 8.783-.963 8.783-6.7.571-11.078-32.682.96-32.859-21.482 0-10.142 7.353-14.815 16.804-14.815 6.121 0 12.336 1.619 16.626 6.105.106-1.613.489-3.242.967-4.771h13.748c-1.235 2.004-1.71 6.499-1.71 10.98zm20.764 3.524h-.182v9.174l-12.9-2.3V22.859h13.565V45.12c0 8.792 3.35 15.864 13.378 15.864 1.627 0 3.628-.2 4.875-.479v12.611c-.958.281-1.912.473-2.966.473-6.78 0-13.183-4.294-15.77-10.508m70.7 9.174h-16.054l-17.103-17.778v36.602l-13.566-7.442V22.859h13.565V39.86l5.263 5.07 13.558-22.071h16.429l-20.729 31.232z"/>
    <path d="M-123.38 76.067v-3.813h-4.135l-9.244-9.075h13.379v-40.32h13.568v40.32h9.362v9.075h-9.362v2.96c0 4.111 1.436 5.642 5.17 5.642a40.37 40.37 0 0 0 4.958-.294v10.132c-2.284.093-4.78.384-7.157.384-11.088 0-16.539-6.213-16.539-15.011m59.508-29.703c0-10.025-3.145-14.138-10.512-14.138-6.387 0-8.683 4.004-8.683 12.132v27.897H-96.64V41.866c0-12.227 3.627-20.341 18.054-20.341 5.734 0 11.666 2.575 15.103 8.213h.283v-6.879h12.903v49.396h-13.575Zm49.35 27.225c-5.741 0-11.659-2.58-15.098-8.214h-.285v6.88h-12.901V22.859h13.579v25.885c0 10.039 3.142 14.149 10.497 14.149 6.39 0 8.695-4.012 8.695-12.137V22.859H3.534v30.393c0 12.217-3.632 20.337-18.056 20.337m29.99-49.393c-2.623 0-4.706 2.074-4.706 4.935 0 2.838 2.083 4.898 4.707 4.898 2.599 0 4.719-2.06 4.719-4.898 0-2.861-2.12-4.935-4.72-4.935m.001 11.166c-3.392 0-6.415-2.437-6.415-6.231 0-3.817 3.022-6.272 6.414-6.272 3.397 0 6.428 2.455 6.428 6.272 0 3.794-3.031 6.231-6.427 6.231"/>
    <path d="M14.366 29.713v1.841h1.169c.641 0 1.444-.137 1.444-.871 0-.852-.568-.97-1.377-.97Zm3.999.852c0 1.523-.988 2.074-2.75 2.074h-2.636v-7.006h1.387v2.992h.871l1.707-2.992h1.455l-1.87 3.062c1.016.082 1.836.58 1.836 1.87"/>
    <path d="m-297.85-1.683 2.268.648a.56.56 0 0 0 .682-.367c.58-1.738 1.794-2.573 3.326-2.573 1.826 0 2.915 1.208 2.915 2.15 0 .619-.441 1.354-1.589 1.737l-3.829 1.237c-1.531.501-2.561 1.619-3.032 3.18-.825 2.739.883 5.536 3.857 6.331 2.602.7 6.001-.195 6.915-3.392a.557.557 0 0 0-.375-.678l-2.242-.693a.552.552 0 0 0-.667.29c-.542 1.221-1.491 1.523-2.63 1.205-1.237-.324-1.737-1.354-1.531-2.091.118-.412.471-.795.972-.942l3.857-1.207c2.326-.737 3.77-2.739 3.77-5.066 0-3.122-2.916-5.447-6.42-5.447-3.16 0-5.869 1.805-6.638 5.014a.559.559 0 0 0 .391.664m20.26 12.284h11.843a.557.557 0 0 0 .557-.557v-2.42a.557.557 0 0 0-.557-.556h-4.155V-6.51a.557.557 0 0 0-.557-.557h-2.42a.558.558 0 0 0-.557.557V7.068h-4.154a.556.556 0 0 0-.557.556v2.42c0 .308.249.557.557.557m23.12-11.484h3.887l-1.943 5.595Zm5.036-3.24h-6.184l-.9-2.571a.556.556 0 0 0-.526-.373h-2.059a.557.557 0 0 0-.526.741l5.794 16.554a.557.557 0 0 0 .526.373h1.565c.237 0 .448-.15.526-.373l5.794-16.554a.557.557 0 0 0-.525-.741h-2.06a.556.556 0 0 0-.525.373zm14.724 11.337V2.797h2.945c1.207 0 2.061 1.061 2.061 2.209 0 1.148-.972 2.208-2.179 2.208Zm.147-7.802V-6.51a.556.556 0 0 0-.556-.557h-2.421a.556.556 0 0 0-.556.557v16.554c0 .308.249.557.556.557h5.951c2.769 0 5.272-2.503 5.272-5.595 0-1.973-1.031-3.681-2.474-4.682l3.762-6.557a.557.557 0 0 0-.483-.834h-2.255a.558.558 0 0 0-.479.273l-3.667 6.206zm17.633 11.189h11.843a.557.557 0 0 0 .557-.557v-2.42a.556.556 0 0 0-.557-.556h-4.154V-6.51a.558.558 0 0 0-.557-.557h-2.42a.557.557 0 0 0-.557.557V7.068h-4.155a.556.556 0 0 0-.557.556v2.42c0 .308.249.557.557.557m35.86-12.284 2.268.648a.56.56 0 0 0 .682-.367c.58-1.738 1.794-2.573 3.326-2.573 1.826 0 2.915 1.208 2.915 2.15 0 .619-.441 1.354-1.589 1.737l-3.829 1.237c-1.531.501-2.561 1.619-3.032 3.18-.825 2.739.883 5.536 3.857 6.331 2.602.7 6.001-.195 6.915-3.392a.556.556 0 0 0-.374-.678l-2.243-.693a.552.552 0 0 0-.667.29c-.542 1.221-1.491 1.523-2.63 1.205-1.237-.324-1.737-1.354-1.531-2.091.118-.412.471-.795.972-.942l3.857-1.207c2.326-.737 3.77-2.739 3.77-5.066 0-3.122-2.916-5.447-6.42-5.447-3.16 0-5.869 1.805-6.638 5.014a.559.559 0 0 0 .391.664m28.54-2.351c3.063 0 5.565 2.591 5.565 5.801 0 3.209-2.502 5.802-5.565 5.802s-5.566-2.593-5.566-5.802c0-3.21 2.503-5.801 5.566-5.801m0 14.929c4.888 0 8.834-4.093 8.834-9.128s-3.946-9.129-8.834-9.129c-4.889 0-8.834 4.094-8.834 9.129s3.945 9.128 8.834 9.128m23.4-12.217-2.787 5.297V-6.51a.557.557 0 0 0-.558-.557h-2.419a.557.557 0 0 0-.557.557v16.554c0 .308.25.557.557.557h2.493a.558.558 0 0 0 .493-.298l4.408-8.388 4.407 8.388a.557.557 0 0 0 .493.298h2.493a.557.557 0 0 0 .557-.557V-6.51a.557.557 0 0 0-.557-.557h-2.419a.557.557 0 0 0-.557.557V3.975l-2.788-5.297a.558.558 0 0 0-.493-.298h-2.273a.558.558 0 0 0-.493.298m19.56 11.923h9.487a.557.557 0 0 0 .557-.557v-2.42a.556.556 0 0 0-.557-.556h-6.804V3.387h5.921c.307 0 .556-.25.556-.557V.705a.556.556 0 0 0-.556-.557h-5.921v-3.681h6.804c.308 0 .557-.25.557-.557v-2.42a.557.557 0 0 0-.557-.557h-9.487a.557.557 0 0 0-.557.557v16.554c0 .308.249.557.557.557m18.257 0h11.843a.556.556 0 0 0 .556-.557v-2.42a.556.556 0 0 0-.556-.556h-4.156V-6.51a.557.557 0 0 0-.556-.557h-2.42a.557.557 0 0 0-.557.557V7.068h-4.154a.557.557 0 0 0-.558.556v2.42c0 .308.25.557.558.557m21.201 0h2.42a.557.557 0 0 0 .557-.557v-6.51h6.183v6.51c0 .308.249.557.557.557h2.421a.556.556 0 0 0 .556-.557V-6.51a.557.557 0 0 0-.556-.557h-2.421a.557.557 0 0 0-.557.557V0h-6.183v-6.51a.557.557 0 0 0-.557-.557h-2.42a.557.557 0 0 0-.557.557v16.554c0 .308.249.557.557.557m22.672 0h2.421a.557.557 0 0 0 .557-.557V-6.51a.557.557 0 0 0-.557-.557h-2.421a.557.557 0 0 0-.557.557v16.554c0 .308.249.557.557.557m23.278-17.417-7.344 11.174V-6.51a.558.558 0 0 0-.556-.557h-2.42a.557.557 0 0 0-.557.557v16.554c0 .308.249.557.557.557h2.528a.555.555 0 0 0 .465-.251l7.345-11.174v10.868c0 .308.249.557.556.557h2.42a.557.557 0 0 0 .557-.557V-6.51a.557.557 0 0 0-.557-.557h-2.528a.558.558 0 0 0-.466.251M0 0h-2.388a.557.557 0 0 0-.556.557v1.831c0 .308.249.557.556.557h5.365a.556.556 0 0 0 .556-.557v-5.877a.558.558 0 0 0-.115-.343C1.794-5.929-.715-7.361-3.533-7.361c-4.889 0-8.834 4.093-8.834 9.128 0 5.036 3.945 9.129 8.834 9.129a8.604 8.604 0 0 0 5.045-1.647.558.558 0 0 0 .107-.799L.109 6.558a.551.551 0 0 0-.744-.117 5.195 5.195 0 0 1-2.898.921c-2.827 0-5.301-2.503-5.301-5.595 0-3.092 2.474-5.595 5.301-5.595 1.344 0 2.417.27 3.289 1.19A.894.894 0 0 1 0-2.025Z" fill="#37414a"/>
  </g>
</svg>
